<svg width="128" height="128" viewBox="0 0 128 128" fill="none" xmlns="http://www.w3.org/2000/svg">
<path d="M37 50.7347V77.7347H23.0996C21.3879 77.7345 20.0002 76.3469 20 74.6351V53.8344L20.0039 53.6752C20.0869 52.0374 21.4412 50.7349 23.0996 50.7347H37Z" stroke="black" stroke-width="6"/>
<path d="M60.166 34.6182C62.225 33.2293 65 34.7049 65 37.1885V89.8115C65 92.295 62.2251 93.7708 60.166 92.3818L38.3223 77.6475L37 76.7549V50.2451L38.3223 49.3525L60.166 34.6182Z" stroke="black" stroke-width="6"/>
<path d="M80.0901 47.0309C81.275 45.8462 83.2148 45.8507 84.2408 47.1754C87.8007 51.7719 89.9257 57.5754 89.9258 63.8851C89.9258 70.0854 87.8733 75.7967 84.4241 80.3544C83.4047 81.7014 81.4461 81.716 80.2516 80.5215C79.1013 79.3712 79.0947 77.5258 80.0353 76.1985C82.4778 72.7522 83.9258 68.5066 83.9258 63.8851C83.9257 59.1784 82.4233 54.8621 79.8983 51.3826C78.9349 50.0552 78.9302 48.1905 80.0901 47.0309Z" fill="black"/>
<path d="M92.2478 32.8731C93.4262 31.6947 95.347 31.6962 96.4376 32.9564C103.591 41.2217 107.925 52.0419 107.925 63.8859C107.925 75.6257 103.665 86.3581 96.6239 94.5949C95.536 95.8674 93.6047 95.8745 92.421 94.6905C91.2614 93.5307 91.2567 91.6616 92.311 90.4052C98.303 83.2646 101.925 74.0148 101.925 63.8859C101.925 53.6659 98.2392 44.3391 92.1507 37.1722C91.0843 35.9169 91.0831 34.0378 92.2478 32.8731Z" fill="black"/>
</svg>
