<svg width="128" height="128" viewBox="0 0 128 128" fill="none" xmlns="http://www.w3.org/2000/svg">
<rect x="46.4039" y="70" width="6" height="52.1161" rx="3" transform="rotate(31.724 46.4039 70)" fill="black"/>
<rect width="6" height="52.1161" rx="3" transform="matrix(-0.850591 0.525828 0.525828 0.850591 60.2418 70)" fill="black"/>
<rect width="6" height="46" rx="3" transform="matrix(-1 -8.74228e-08 -8.74228e-08 1 56.3921 71)" fill="black"/>
<path d="M69.0387 66C68.537 71.0533 64.2738 75 59.0885 75H47.0885C41.9032 75 37.64 71.0533 37.1383 66H43.2145C43.6421 67.6613 45.1101 68.9052 46.8824 68.9951L47.0885 69H59.0885L59.2946 68.9951C61.0669 68.9052 62.5339 67.6612 62.9615 66H69.0387Z" fill="black"/>
<rect x="22.1384" y="16" width="58" height="47" rx="11" stroke="black" stroke-width="6"/>
<path d="M91 34V50H80V34H91Z" stroke="black" stroke-width="6"/>
<path d="M106.846 26.2998C108.863 25.453 111.138 26.9297 111.138 29.1621V53.8379C111.138 56.1423 108.713 57.6417 106.652 56.6113L93.9021 50.2363C92.2082 49.3893 91.1384 47.6575 91.1384 45.7637V37.2363C91.1384 35.3425 92.2082 33.6107 93.9021 32.7637L106.652 26.3887L106.846 26.2998Z" stroke="black" stroke-width="6"/>
</svg>
