<svg width="128" height="128" viewBox="0 0 128 128" fill="none" xmlns="http://www.w3.org/2000/svg">
<path d="M21.2959 51.3438C17.9679 49.6236 14 52.0389 14 55.7852V92.1152C14.0002 94.0028 15.0636 95.7292 16.749 96.5791L48.749 112.716C52.0743 114.393 55.9997 111.976 56 108.252V72.3252C56 70.4556 54.9568 68.7423 53.2959 67.8838L21.2959 51.3438Z" stroke="black" stroke-width="6"/>
<path d="M61.7656 13.6514C63.0382 13.1025 64.4826 13.1068 65.752 13.6631L66.0205 13.79L96.9717 29.6074C100.56 31.4416 100.616 36.5506 97.0674 38.4619L66.1162 55.1338C64.6452 55.9261 62.876 55.931 61.4004 55.1475L30.0068 38.4756C26.4241 36.5727 26.4796 31.4201 30.1025 29.5947L61.4951 13.7773L61.7656 13.6514Z" stroke="black" stroke-width="6"/>
<path d="M19 56.4386C19 55.9121 19.36 55.7197 19.8 55.9627C21.4 56.8841 22.99 57.765 24.56 58.6661C25.01 58.9293 25.38 59.5571 25.39 60.0532C25.39 61.8757 25.39 63.688 25.39 65.4902C25.39 66.0269 25.01 66.2395 24.55 65.9864C22.99 65.1055 21.4 64.2246 19.81 63.3134C19.36 63.0603 19 62.4325 19 61.9162C19 60.1038 19 58.2712 19 56.4386Z" fill="black"/>
<path d="M19 71.1905C19 70.6539 19.35 70.4312 19.8 70.6843C21.39 71.5753 22.97 72.4663 24.56 73.3269C25.01 73.5699 25.39 74.1976 25.39 74.714C25.39 76.5365 25.38 78.3488 25.4 80.151C25.39 80.6775 25.01 80.9104 24.57 80.6674C22.97 79.7967 21.38 78.9361 19.8 78.0653C19.35 77.8021 19 77.1743 19 76.6478C19 74.8456 19 73.013 19 71.1905Z" fill="black"/>
<path d="M19 85.9323C19 85.416 19.35 85.2033 19.81 85.4463C21.4 86.307 22.98 87.1574 24.57 88.0079C25 88.2509 25.39 88.8685 25.39 89.3849C25.4 91.2074 25.4 93.0299 25.4 94.8523C25.39 95.3586 25.01 95.6016 24.57 95.3687C22.98 94.5283 21.39 93.688 19.81 92.8274C19.34 92.5945 19 91.9566 19 91.4301C19 89.5975 19 87.7649 19 85.9323Z" fill="black"/>
<path d="M25.4 67.3937C25.39 66.8773 25.76 66.6647 26.2 66.9077C27.78 67.7886 29.38 68.6492 30.95 69.5098C31.42 69.7528 31.79 70.3704 31.79 70.8767C31.8 72.689 31.79 74.4912 31.79 76.2833C31.79 76.7795 31.42 77.0326 30.96 76.7795C29.37 75.9391 27.79 75.0886 26.19 74.228C25.74 73.9749 25.39 73.3471 25.39 72.8308C25.39 71.0184 25.4 69.2061 25.4 67.3937Z" fill="black"/>
<path d="M25.4 82.0545C25.39 81.528 25.74 81.3053 26.19 81.5483C27.8 82.3988 29.37 83.2391 30.96 84.0694C31.42 84.2921 31.79 84.9097 31.79 85.4261C31.78 87.2486 31.79 89.0508 31.8 90.8429C31.8 91.3593 31.42 91.582 30.97 91.3593C29.38 90.5392 27.8 89.7089 26.2 88.8787C25.75 88.6458 25.39 88.0079 25.39 87.4916C25.4 85.6893 25.38 83.877 25.4 82.0545Z" fill="black"/>
<path d="M38.2 74.2482C38.2 73.7319 38.55 73.5091 39.01 73.742C40.58 74.552 42.19 75.362 43.77 76.1618C44.21 76.3846 44.6 76.982 44.6 77.4882C44.6 79.2499 44.6 81.0319 44.6 82.8038C44.59 83.31 44.21 83.5429 43.76 83.3201C42.18 82.5405 40.59 81.7508 39.01 80.9509C38.55 80.7282 38.19 80.1105 38.19 79.6043C38.19 77.8122 38.2 76.0302 38.2 74.2482Z" fill="black"/>
<path d="M38.2 88.6863C38.19 88.1699 38.56 87.9472 38.99 88.1699C40.6 88.9597 42.19 89.7292 43.77 90.4885C44.22 90.7113 44.6 91.2985 44.6 91.8048C44.6 93.5867 44.59 95.3788 44.59 97.1406C44.59 97.6468 44.2 97.8797 43.77 97.6772C42.19 96.9178 40.58 96.1483 39 95.389C38.55 95.146 38.19 94.5587 38.18 94.0525C38.19 92.2705 38.2 90.4784 38.2 88.6863Z" fill="black"/>
<path d="M31.8 63.5969C31.8 63.0805 32.15 62.8679 32.61 63.121C34.2 63.9715 35.78 64.8321 37.36 65.6624C37.82 65.9155 38.2 66.5128 38.2 67.0292C38.19 68.8213 38.19 70.6134 38.2 72.3853C38.19 72.9016 37.82 73.1345 37.37 72.9016C35.78 72.0613 34.2 71.231 32.61 70.3907C32.15 70.1477 31.79 69.5199 31.79 69.0036C31.79 67.2013 31.79 65.3991 31.8 63.5969Z" fill="black"/>
<path d="M31.8 78.1463C31.79 77.6299 32.16 77.3971 32.61 77.6502C34.2 78.4804 35.78 79.3005 37.37 80.1105C37.8 80.3434 38.19 80.9509 38.2 81.4673C38.2 83.2594 38.2 85.0413 38.2 86.8233C38.18 87.3498 37.81 87.5726 37.37 87.3498C35.79 86.55 34.2 85.7298 32.61 84.9198C32.16 84.687 31.79 84.0795 31.79 83.5631C31.79 81.771 31.79 79.9688 31.8 78.1463Z" fill="black"/>
<path d="M31.79 92.7059C31.79 92.1996 32.16 91.9668 32.61 92.1895C34.2 93.0096 35.78 93.8095 37.36 94.5688C37.81 94.8017 38.19 95.3991 38.2 95.9053C38.19 97.7075 38.2 99.4997 38.2 101.282C38.19 101.788 37.82 102.021 37.37 101.798C35.79 101.029 34.2 100.259 32.61 99.4794C32.15 99.2465 31.79 98.6492 31.8 98.1227C31.79 96.3306 31.79 94.5283 31.79 92.7059Z" fill="black"/>
<path d="M44.59 70.3299C44.6 69.8338 44.96 69.6111 45.39 69.8338C47 70.6438 48.58 71.4335 50.17 72.203C50.62 72.4258 51 73.0029 50.99 73.5193C50.98 75.2709 51 77.0225 50.99 78.7741C50.98 79.3005 50.62 79.5132 50.17 79.3005C48.59 78.5311 47 77.7616 45.41 76.9718C44.96 76.7491 44.59 76.1416 44.58 75.6455C44.6 73.8736 44.6 72.1119 44.59 70.3299Z" fill="black"/>
<path d="M44.58 84.6364C44.59 84.1402 44.96 83.9074 45.4 84.12C46.99 84.8996 48.57 85.6691 50.16 86.4183C50.61 86.6208 51 87.2081 51 87.7143C50.99 89.476 50.98 91.2479 50.99 92.9995C50.99 93.5057 50.62 93.7386 50.17 93.526C48.58 92.797 47 92.0478 45.4 91.2884C44.96 91.0656 44.6 90.4784 44.6 89.9722C44.6 88.2003 44.59 86.4285 44.58 84.6364Z" fill="black"/>
<path d="M44.59 98.9833C44.59 98.4669 44.96 98.234 45.41 98.4467C47 99.1858 48.59 99.935 50.17 100.654C50.62 100.867 50.98 101.444 51 101.95C51 103.701 50.99 105.473 51 107.235C51 107.751 50.62 107.994 50.17 107.782C48.59 107.073 46.98 106.354 45.41 105.615C44.95 105.402 44.6 104.815 44.59 104.309C44.6 102.537 44.6 100.765 44.59 98.9833Z" fill="black"/>
<path d="M105.704 51.3438C109.032 49.6236 113 52.0389 113 55.7852V92.1152C113 94.0028 111.936 95.7292 110.251 96.5791L78.251 112.716C74.9257 114.393 71.0003 111.976 71 108.252V72.3252C71 70.4556 72.0432 68.7423 73.7041 67.8838L105.704 51.3438Z" stroke="black" stroke-width="6"/>
<path d="M108 56.4386C108 55.9121 107.64 55.7197 107.2 55.9627C105.6 56.8841 104.01 57.765 102.44 58.6661C101.99 58.9293 101.62 59.5571 101.61 60.0532C101.61 61.8757 101.61 63.688 101.61 65.4902C101.61 66.0269 101.99 66.2395 102.45 65.9864C104.01 65.1055 105.6 64.2246 107.19 63.3134C107.64 63.0603 108 62.4325 108 61.9162C108 60.1038 108 58.2712 108 56.4386Z" fill="black"/>
<path d="M108 71.1905C108 70.6539 107.65 70.4312 107.2 70.6843C105.61 71.5753 104.03 72.4663 102.44 73.3269C101.99 73.5699 101.61 74.1976 101.61 74.714C101.61 76.5365 101.62 78.3488 101.6 80.151C101.61 80.6775 101.99 80.9104 102.43 80.6674C104.03 79.7967 105.62 78.9361 107.2 78.0653C107.65 77.8021 108 77.1743 108 76.6478C108 74.8456 108 73.013 108 71.1905Z" fill="black"/>
<path d="M108 85.9323C108 85.416 107.65 85.2033 107.19 85.4463C105.6 86.307 104.02 87.1574 102.43 88.0079C102 88.2509 101.61 88.8685 101.61 89.3849C101.6 91.2074 101.6 93.0299 101.6 94.8523C101.61 95.3586 101.99 95.6016 102.43 95.3687C104.02 94.5283 105.61 93.688 107.19 92.8274C107.66 92.5945 108 91.9566 108 91.4301C108 89.5975 108 87.7649 108 85.9323Z" fill="black"/>
<path d="M101.6 67.3937C101.61 66.8773 101.24 66.6647 100.8 66.9077C99.22 67.7886 97.62 68.6492 96.05 69.5098C95.58 69.7528 95.21 70.3704 95.21 70.8767C95.2 72.689 95.21 74.4912 95.21 76.2833C95.21 76.7795 95.58 77.0326 96.04 76.7795C97.63 75.9391 99.21 75.0886 100.81 74.228C101.26 73.9749 101.61 73.3471 101.61 72.8308C101.61 71.0184 101.6 69.2061 101.6 67.3937Z" fill="black"/>
<path d="M101.6 82.0545C101.61 81.528 101.26 81.3053 100.81 81.5483C99.2 82.3988 97.63 83.2391 96.04 84.0694C95.58 84.2921 95.21 84.9097 95.21 85.4261C95.22 87.2486 95.21 89.0508 95.2 90.8429C95.2 91.3593 95.58 91.582 96.03 91.3593C97.62 90.5392 99.2 89.7089 100.8 88.8787C101.25 88.6458 101.61 88.0079 101.61 87.4916C101.6 85.6893 101.62 83.877 101.6 82.0545Z" fill="black"/>
<path d="M88.8 74.2482C88.8 73.7319 88.45 73.5091 87.99 73.742C86.42 74.552 84.81 75.362 83.23 76.1618C82.79 76.3846 82.4 76.982 82.4 77.4882C82.4 79.2499 82.4 81.0319 82.4 82.8038C82.41 83.31 82.79 83.5429 83.24 83.3201C84.82 82.5405 86.41 81.7508 87.99 80.9509C88.45 80.7282 88.81 80.1105 88.81 79.6043C88.81 77.8122 88.8 76.0302 88.8 74.2482Z" fill="black"/>
<path d="M88.8 88.6863C88.81 88.1699 88.44 87.9472 88.01 88.1699C86.4 88.9597 84.81 89.7292 83.23 90.4885C82.78 90.7113 82.4 91.2985 82.4 91.8048C82.4 93.5867 82.41 95.3788 82.41 97.1406C82.41 97.6468 82.8 97.8797 83.23 97.6772C84.81 96.9178 86.42 96.1483 88 95.389C88.45 95.146 88.81 94.5587 88.82 94.0525C88.81 92.2705 88.8 90.4784 88.8 88.6863Z" fill="black"/>
<path d="M95.2 63.5969C95.2 63.0805 94.85 62.8679 94.39 63.121C92.8 63.9715 91.22 64.8321 89.64 65.6624C89.18 65.9155 88.8 66.5128 88.8 67.0292C88.81 68.8213 88.81 70.6134 88.8 72.3853C88.81 72.9016 89.18 73.1345 89.63 72.9016C91.22 72.0613 92.8 71.231 94.39 70.3907C94.85 70.1477 95.21 69.5199 95.21 69.0036C95.21 67.2013 95.21 65.3991 95.2 63.5969Z" fill="black"/>
<path d="M95.2 78.1463C95.21 77.6299 94.84 77.3971 94.39 77.6502C92.8 78.4804 91.22 79.3005 89.63 80.1105C89.2 80.3434 88.81 80.9509 88.8 81.4673C88.8 83.2594 88.8 85.0413 88.8 86.8233C88.82 87.3498 89.19 87.5726 89.63 87.3498C91.21 86.55 92.8 85.7298 94.39 84.9198C94.84 84.687 95.21 84.0795 95.21 83.5631C95.21 81.771 95.21 79.9688 95.2 78.1463Z" fill="black"/>
<path d="M95.21 92.7059C95.21 92.1996 94.84 91.9668 94.39 92.1895C92.8 93.0096 91.22 93.8095 89.64 94.5688C89.19 94.8017 88.81 95.3991 88.8 95.9053C88.81 97.7075 88.8 99.4997 88.8 101.282C88.81 101.788 89.18 102.021 89.63 101.798C91.21 101.029 92.8 100.259 94.39 99.4794C94.85 99.2465 95.21 98.6492 95.2 98.1227C95.21 96.3306 95.21 94.5283 95.21 92.7059Z" fill="black"/>
<path d="M82.41 70.3299C82.4 69.8338 82.04 69.6111 81.61 69.8338C80 70.6438 78.42 71.4335 76.83 72.203C76.38 72.4258 76 73.0029 76.01 73.5193C76.02 75.2709 76 77.0225 76.01 78.7741C76.02 79.3005 76.38 79.5132 76.83 79.3005C78.41 78.5311 80 77.7616 81.59 76.9718C82.04 76.7491 82.41 76.1416 82.42 75.6455C82.4 73.8736 82.4 72.1119 82.41 70.3299Z" fill="black"/>
<path d="M82.42 84.6364C82.41 84.1402 82.04 83.9074 81.6 84.12C80.01 84.8996 78.43 85.6691 76.84 86.4183C76.39 86.6208 76 87.2081 76 87.7143C76.01 89.476 76.02 91.2479 76.01 92.9995C76.01 93.5057 76.38 93.7386 76.83 93.526C78.42 92.797 80 92.0478 81.6 91.2884C82.04 91.0656 82.4 90.4784 82.4 89.9722C82.4 88.2003 82.41 86.4285 82.42 84.6364Z" fill="black"/>
<path d="M82.41 98.9833C82.41 98.4669 82.04 98.234 81.59 98.4467C80 99.1858 78.41 99.935 76.83 100.654C76.38 100.867 76.02 101.444 76 101.95C76 103.701 76.01 105.473 76 107.235C76 107.751 76.38 107.994 76.83 107.782C78.41 107.073 80.02 106.354 81.59 105.615C82.05 105.402 82.4 104.815 82.41 104.309C82.4 102.537 82.4 100.765 82.41 98.9833Z" fill="black"/>
<path d="M62.7639 44.0293C63.1631 43.8124 63.8419 43.8124 64.2411 44.0213C65.6785 44.7713 67.1158 45.5214 68.5532 46.2714C68.9624 46.4804 68.9525 46.834 68.5432 47.0509C67.1125 47.8117 65.6818 48.5724 64.2511 49.3332C63.8419 49.5502 63.1631 49.5582 62.7639 49.3412C61.3332 48.5965 59.8991 47.8519 58.4618 47.1072C58.0525 46.8902 58.0426 46.5447 58.4618 46.3277C59.8991 45.5616 61.3332 44.7955 62.7639 44.0293Z" fill="black"/>
<path d="M51.1852 38.0022C51.6044 37.7853 52.2632 37.7853 52.6625 37.9942C54.0998 38.7442 55.5338 39.4916 56.9645 40.2363C57.3738 40.4533 57.3838 40.7988 56.9745 41.0158C55.5438 41.7819 54.1098 42.548 52.6724 43.3141C52.2632 43.5311 51.6044 43.5311 51.1952 43.3222C49.7578 42.5721 48.3171 41.8221 46.8731 41.072C46.4739 40.8551 46.4739 40.5095 46.8831 40.2925C48.3138 39.5264 49.7478 38.763 51.1852 38.0022Z" fill="black"/>
<path d="M62.7539 37.946C63.1631 37.729 63.8319 37.721 64.2511 37.9379C65.6752 38.6826 67.1059 39.43 68.5432 40.18C68.9624 40.389 68.9624 40.7345 68.5432 40.9515C67.1125 41.7176 65.6785 42.4837 64.2411 43.2498C63.8319 43.4668 63.1731 43.4668 62.7539 43.2579C61.3298 42.5078 59.8958 41.7578 58.4518 41.0077C58.0426 40.7988 58.0426 40.4533 58.4618 40.2282C59.8991 39.4675 61.3298 38.7067 62.7539 37.946Z" fill="black"/>
<path d="M74.3325 37.8817C74.7518 37.6647 75.4106 37.6647 75.8198 37.8737C77.2572 38.6183 78.6912 39.3657 80.1219 40.1157C80.5411 40.3247 80.5411 40.6783 80.1319 40.8952C78.6945 41.656 77.2572 42.4194 75.8198 43.1855C75.4106 43.4025 74.7418 43.4025 74.3325 43.1936C72.9018 42.4435 71.4712 41.6935 70.0405 40.9435C69.6312 40.7345 69.6312 40.389 70.0405 40.172C71.4712 39.4059 72.9018 38.6424 74.3325 37.8817Z" fill="black"/>
<path d="M39.6165 31.9671C40.0158 31.7501 40.6945 31.7501 41.1038 31.9591C42.5345 32.7091 43.9652 33.4565 45.3959 34.2011C45.8051 34.4181 45.8051 34.7717 45.3959 34.9887C43.9652 35.7494 42.5345 36.5129 41.1038 37.279C40.6845 37.496 40.0158 37.496 39.6165 37.287C38.1725 36.537 36.7385 35.7896 35.3144 35.0449C34.8952 34.828 34.8952 34.4744 35.3144 34.2574C36.7385 33.4966 38.1725 32.7332 39.6165 31.9671Z" fill="black"/>
<path d="M51.1952 31.9108C51.6044 31.6939 52.2632 31.6858 52.6724 31.9028C54.1031 32.6528 55.5372 33.4002 56.9745 34.1449C57.3738 34.3619 57.3838 34.7074 56.9745 34.9244C55.5438 35.6851 54.1098 36.4486 52.6724 37.2147C52.2532 37.4317 51.6044 37.4397 51.1952 37.2227C49.7512 36.4727 48.3105 35.7253 46.8731 34.9806C46.4739 34.7637 46.4739 34.4181 46.8831 34.2011C48.3138 33.4404 49.7512 32.6769 51.1952 31.9108Z" fill="black"/>
<path d="M62.7639 31.8465C63.1631 31.6296 63.8419 31.6296 64.2511 31.8385C65.6752 32.5885 67.1059 33.3359 68.5432 34.0806C68.9624 34.2976 68.9624 34.6512 68.5432 34.8681C67.1125 35.6289 65.6785 36.3896 64.2411 37.1504C63.8319 37.3674 63.1731 37.3754 62.7639 37.1584C61.3265 36.4138 59.8925 35.6664 58.4618 34.9164C58.0525 34.7074 58.0525 34.3538 58.4618 34.1368C59.8991 33.3761 61.3332 32.6127 62.7639 31.8465Z" fill="black"/>
<path d="M74.3425 31.7903C74.7418 31.5733 75.4006 31.5653 75.8198 31.7823C77.2572 32.5323 78.6945 33.2797 80.1319 34.0243C80.5411 34.2333 80.5411 34.5869 80.1219 34.8038C78.6912 35.5646 77.2572 36.328 75.8198 37.0941C75.4106 37.3111 74.7518 37.3111 74.3325 37.1022C72.9018 36.3521 71.4712 35.6048 70.0405 34.8601C69.6212 34.6431 69.6212 34.2976 70.0305 34.0726C71.4678 33.3172 72.9052 32.5564 74.3425 31.7903Z" fill="black"/>
<path d="M85.9212 31.734C86.3304 31.509 86.9892 31.509 87.3985 31.726C88.8358 32.4707 90.2699 33.2154 91.7006 33.96C92.0998 34.177 92.0998 34.5306 91.7006 34.7476C90.2699 35.5083 88.8358 36.2691 87.3985 37.0299C86.9892 37.2468 86.3304 37.2549 85.9212 37.0379C84.4772 36.2879 83.0398 35.5405 81.6091 34.7958C81.1999 34.5869 81.1999 34.2333 81.6091 34.0163C83.0465 33.2555 84.4838 32.4948 85.9212 31.734Z" fill="black"/>
<path d="M51.1852 25.8114C51.6044 25.5944 52.2632 25.5944 52.6625 25.8034C54.1065 26.5534 55.5438 27.3034 56.9745 28.0535C57.3838 28.2705 57.3838 28.616 56.9645 28.833C55.5338 29.5991 54.1031 30.3599 52.6724 31.1153C52.2632 31.3403 51.5944 31.3403 51.1952 31.1233C49.7512 30.3786 48.3138 29.6312 46.8831 28.8812C46.4639 28.6723 46.4639 28.3267 46.8831 28.1097C48.3205 27.3436 49.7545 26.5775 51.1852 25.8114Z" fill="black"/>
<path d="M62.7639 25.7551C63.1631 25.5382 63.8419 25.5382 64.2411 25.7471C65.6785 26.4972 67.1125 27.2472 68.5432 27.9972C68.9624 28.2062 68.9624 28.5598 68.5432 28.7767C67.1125 29.5375 65.6785 30.2982 64.2411 31.059C63.8419 31.276 63.1631 31.284 62.7639 31.067C61.3265 30.3224 59.8925 29.575 58.4618 28.825C58.0426 28.608 58.0525 28.2624 58.4618 28.0454C59.8991 27.2847 61.3332 26.5213 62.7639 25.7551Z" fill="black"/>
<path d="M74.3425 25.6989C74.7418 25.4819 75.4006 25.4739 75.8198 25.6909C77.2572 26.4409 78.6912 27.1909 80.1219 27.941C80.5311 28.1499 80.5411 28.4955 80.1219 28.7124C78.6912 29.4786 77.2572 30.242 75.8198 31.0028C75.4106 31.2197 74.7518 31.2197 74.3325 31.0108C72.9018 30.2607 71.4712 29.5134 70.0405 28.7687C69.6312 28.5517 69.6312 28.2062 70.0305 27.9892C71.4678 27.2231 72.9052 26.4597 74.3425 25.6989Z" fill="black"/>
<path d="M62.7539 19.6638C63.1631 19.4468 63.8419 19.4468 64.2511 19.6557C65.6818 20.4058 67.1125 21.1558 68.5432 21.9058C68.9624 22.1148 68.9624 22.4684 68.5532 22.6853C67.1158 23.4461 65.6785 24.2069 64.2411 24.9676C63.8319 25.1846 63.1731 25.1926 62.7539 24.9756C61.3298 24.2256 59.8991 23.4782 58.4618 22.7336C58.0525 22.5246 58.0525 22.171 58.4618 21.9541C59.8991 21.1879 61.3298 20.4245 62.7539 19.6638Z" fill="black"/>
</svg>
