<svg width="128" height="128" viewBox="0 0 128 128" fill="none" xmlns="http://www.w3.org/2000/svg">
<path d="M80.0296 53.7979C77.5347 51.7188 74.3188 51.6063 71.7893 52.6367C69.2525 53.6703 67.0363 55.997 66.6321 59.2305C66.5718 59.713 66.5133 60.5055 66.4553 61.5342C66.1917 61.5319 65.9256 61.5316 65.6575 61.5283C60.9087 61.4706 56.892 61.6655 53.5 61.5L55.5 67.4854C58.9413 67.6532 60.7417 67.4684 65.5843 67.5273C65.7916 67.5299 65.9986 67.5302 66.2044 67.5322C66.141 69.4161 66.0789 71.4798 66.0218 73.5967C65.8422 80.2509 65.6921 87.7111 65.6087 92.5508L71.6077 92.6543C71.6909 87.8274 71.841 80.3878 72.0198 73.7588C72.0806 71.505 72.1459 69.3749 72.2102 67.4854C72.2206 67.485 72.2311 67.4857 72.2415 67.4854C74.0145 67.4244 75.817 67.3061 76.9329 66.9873C79.7308 66.1879 81.7295 63.9928 82.4348 61.4736C83.1622 58.8756 82.516 55.87 80.0296 53.7979ZM74.053 58.1934C74.8984 57.849 75.6827 57.9864 76.1878 58.4072C76.701 58.835 76.805 59.3297 76.6575 59.8565C76.4879 60.4621 75.9864 61.0172 75.2844 61.2178C75.2844 61.2178 75.2607 61.2244 75.2073 61.2354C75.1548 61.2462 75.0837 61.2593 74.9925 61.2734C74.8081 61.302 74.5696 61.3317 74.2737 61.3594C73.779 61.4057 73.1731 61.4397 72.469 61.4688C72.5098 60.7918 72.5467 60.2828 72.5852 59.9746C72.6811 59.2082 73.2149 58.5348 74.053 58.1934Z" fill="black"/>
<path d="M47.686 53.7979C50.1809 51.7188 53.3968 51.6063 55.9262 52.6367C58.4631 53.6703 60.6792 55.997 61.0835 59.2305C61.1438 59.713 61.2023 60.5055 61.2602 61.5342C61.5239 61.5319 61.79 61.5316 62.0581 61.5283C66.8069 61.4706 70.8236 61.6655 74.2156 61.5L72.2156 67.4854C68.7743 67.6532 66.9739 67.4684 62.1313 67.5273C61.924 67.5299 61.717 67.5302 61.5112 67.5322C61.5746 69.4161 61.6367 71.4798 61.6938 73.5967C61.8733 80.2509 62.0235 87.7111 62.1069 92.5508L56.1079 92.6543C56.0247 87.8274 55.8746 80.3878 55.6958 73.7588C55.635 71.505 55.5697 69.3749 55.5053 67.4854C55.495 67.485 55.4845 67.4857 55.4741 67.4854C53.701 67.4244 51.8986 67.3061 50.7827 66.9873C47.9848 66.1879 45.9861 63.9928 45.2807 61.4736C44.5534 58.8756 45.1996 55.87 47.686 53.7979ZM53.6626 58.1934C52.8172 57.849 52.0329 57.9864 51.5278 58.4072C51.0145 58.835 50.9106 59.3297 51.0581 59.8565C51.2277 60.4621 51.7292 61.0172 52.4311 61.2178C52.4311 61.2178 52.4549 61.2244 52.5083 61.2354C52.5608 61.2462 52.6319 61.2593 52.7231 61.2734C52.9075 61.302 53.1459 61.3317 53.4419 61.3594C53.9366 61.4057 54.5425 61.4397 55.2466 61.4688C55.2057 60.7918 55.1689 60.2828 55.1303 59.9746C55.0345 59.2082 54.5007 58.5348 53.6626 58.1934Z" fill="black"/>
<path d="M75.6816 102V108H52.3184V102H75.6816ZM98 50C98 31.2223 82.7777 16 64 16C45.2223 16 30 31.2223 30 50C30 58.4605 34.2014 66.5437 40.6436 72.874C42.9328 75.1235 44.636 77.5236 45.7578 80.5723C46.8169 83.4506 47.2359 86.5942 47.4844 90.0723L47.5059 90.3721L47.3203 96.8564C47.2398 99.6727 49.5014 102 52.3184 102V108C46.1203 108 41.1462 102.881 41.3232 96.6855L41.5 90.5C41.0247 83.8462 40 80.653 36.4385 77.1533C29.18 70.0209 24 60.4822 24 50C24 27.9086 41.9086 10 64 10C86.0914 10 104 27.9086 104 50C104 60.4822 98.82 70.0209 91.5615 77.1533C88 80.653 86.9753 83.8462 86.5 90.5L86.6768 96.6855C86.8538 102.881 81.8797 108 75.6816 108V102C78.4986 102 80.7602 99.6727 80.6797 96.8564L80.4941 90.3721L80.5156 90.0723C80.7641 86.5942 81.1831 83.4506 82.2422 80.5723C83.364 77.5236 85.0672 75.1235 87.3564 72.874C93.7986 66.5437 98 58.4605 98 50Z" fill="black"/>
<path d="M76.9004 108C76.3986 113.053 72.1355 117 66.9502 117H60.9502C55.7649 117 51.5017 113.053 51 108H57.0762C57.5038 109.661 58.9718 110.905 60.7441 110.995L60.9502 111H66.9502L67.1562 110.995C68.9286 110.905 70.3956 109.661 70.8232 108H76.9004Z" fill="black"/>
<path d="M83.5 90V96H45V90H83.5Z" fill="black"/>
</svg>
