<svg width="128" height="128" viewBox="0 0 128 128" fill="none" xmlns="http://www.w3.org/2000/svg">
<path d="M110.277 81.0537L110.524 81.2012C115.649 84.3659 115.567 91.9229 110.277 94.9463L67.6383 119.312C65.1788 120.717 62.1593 120.717 59.6998 119.312L17.0612 94.9463C11.6872 91.8751 11.6872 84.125 17.0612 81.0537L30.9996 73.0879V79.999L20.0387 86.2627C18.7371 87.0065 18.6964 88.8487 19.9166 89.6611L20.0387 89.7363L62.6764 114.102C63.2913 114.453 64.0469 114.453 64.6617 114.102L107.299 89.7363C108.642 88.9685 108.642 87.0316 107.299 86.2637L94.9996 79.2344V72.3232L110.277 81.0537Z" fill="black"/>
<circle cx="63.1691" cy="52.4999" r="40.5" stroke="black" stroke-width="6"/>
<path d="M73.248 80.4608C72.5076 83.1266 70.6708 88.8137 69.249 90.2362C66.8792 90.6806 61.0723 91.3026 56.8066 90.2362C55.7697 88.6067 53.5185 84.3707 52.8076 80.4608C58.584 80.9052 67.0273 80.9052 73.248 80.4608ZM24.3701 59.5771C28.3691 60.6138 38.5891 62.243 50.5859 62.2431C50.5859 65.6496 51.4747 75.1287 52.8076 80.4608C47.1791 79.8683 35.123 78.1502 31.9238 76.0175C29.8501 73.6474 25.4365 67.0415 24.3701 59.5771ZM102.13 59.5771C101.064 67.0415 96.6499 73.6474 94.5762 76.0175C91.377 78.1502 78.8765 79.8683 73.248 80.4608C74.581 75.1287 75.4697 65.6496 75.4697 62.2431C87.4666 62.243 98.1309 60.6138 102.13 59.5771ZM75.9141 44.0253C75.9141 48.3204 75.8252 57.9773 75.4697 62.2431C69.8415 62.3912 56.9844 62.5985 50.5859 62.2431C50.2897 58.2439 49.7861 49.0017 50.1416 44.0253H75.9141ZM59.0283 11.5888C62.2272 10.5225 66.2855 11.1444 67.915 11.5888C70.7587 15.4988 72.6545 22.4008 73.2471 25.3632C69.6918 24.6524 58.1394 25.067 52.8076 25.3632C51.3858 28.9178 50.4378 39.2856 50.1416 44.0253C42.1436 44.0253 31.4793 44.4696 23.4814 45.3583C24.3702 38.6933 28.0729 32.0282 30.1465 28.4735C36.3671 26.6962 45.254 25.3632 52.8076 25.3632C53.874 17.8986 57.399 13.07 59.0283 11.5888ZM73.248 25.3632C80.8014 25.3632 90.132 26.252 96.3525 28.4735C98.4261 32.0282 102.129 38.6934 103.018 45.3583C95.0197 44.4697 83.9119 44.0253 75.9141 44.0253C75.6178 39.2856 74.6699 28.9178 73.248 25.3632Z" fill="black"/>
</svg>
