<svg width="128" height="128" viewBox="0 0 128 128" fill="none" xmlns="http://www.w3.org/2000/svg">
<path d="M63.29 110.185C64.3947 110.587 65.6053 110.587 66.71 110.185L92.7344 100.713C93.839 100.311 94.7667 99.5326 95.3545 98.5146L109.201 74.5303C109.789 73.5122 110 72.3198 109.796 71.1621L104.986 43.8887C104.782 42.7311 104.177 41.6824 103.276 40.9268L82.0615 23.125C81.1611 22.3695 80.023 21.9552 78.8477 21.9551H51.1523C49.977 21.9552 48.8389 22.3695 47.9385 23.125L26.7236 40.9268C25.8232 41.6824 25.2178 42.7311 25.0137 43.8887L20.2041 71.1621C20 72.3198 20.2111 73.5123 20.7988 74.5303L34.6455 98.5146C35.2333 99.5326 36.161 100.311 37.2656 100.713L63.29 110.185Z" stroke="black" stroke-width="6"/>
<path d="M26 43L64.3607 48L104 43" stroke="black"/>
<path d="M28 43.5L46.5 78.5L64.5 47.5" stroke="black"/>
<path d="M102 43.5L82.5 79L64 47.5" stroke="black"/>
<path d="M22 73L46.1045 79H82.6866L109 73" stroke="black"/>
<path d="M37 98.5652L46.5455 79L65.5 109" stroke="black"/>
<path d="M94 98.5652L82.5 79L65 108.5" stroke="black"/>
<path d="M48 23L64.5 48" stroke="black"/>
<path d="M81 23L64 48" stroke="black"/>
</svg>
