<svg width="128" height="128" viewBox="0 0 128 128" fill="none" xmlns="http://www.w3.org/2000/svg">
<path d="M67 70.626V117.854L66.8636 117.924C65.0222 118.866 62.84 118.864 61 117.919L27.3457 100.638C24.7611 99.3105 23.1058 96.6909 23.0049 93.8018L23 93.5215V50.5L29 50.2217L67 70.626ZM29 93.5215C29.0001 94.2712 29.4191 94.9583 30.0859 95.3008L61 111.174V74.2139L29 57.0313V93.5215Z" fill="black"/>
<path d="M61 70.626V117.919C62.84 118.864 65.0222 118.866 66.8636 117.924L67 117.854L100.654 100.638C103.239 99.3105 104.894 96.691 104.995 93.8018L105 93.5215V50.5L99 50.2217L61 70.626ZM99 93.5215C98.9999 94.2712 98.5809 94.9583 97.9141 95.3008L67 111.174V74.2139L99 57.0313V93.5215Z" fill="black"/>
<path d="M100.654 43.7861C103.239 45.1133 104.894 47.7329 104.995 50.6221L105 50.9023V51H99V50.9023C98.9999 50.1527 98.5809 49.4656 97.9141 49.123L71.5332 35.5771L71.5547 35.5547L64 31.5479L56.4453 35.5547L56.4658 35.5771L30.0859 49.123C29.4191 49.4656 29.0001 50.1527 29 50.9023V51H23V50.9023L23.0049 50.6221C23.1058 47.7329 24.7611 45.1133 27.3457 43.7861L60.2832 26.8729C62.5732 25.697 65.2892 25.6949 67.581 26.8673L100.654 43.7861Z" fill="black"/>
<rect x="61" y="9" width="6" height="36" rx="3" fill="black"/>
<rect x="63.9312" y="7" width="6" height="18.2875" rx="3" transform="rotate(45 63.9312 7)" fill="black"/>
<rect width="6" height="18.2875" rx="3" transform="matrix(-0.707107 0.707107 0.707107 0.707107 64.2426 7)" fill="black"/>
<rect x="11.3018" y="108.854" width="6" height="36" rx="3" transform="rotate(-122.158 11.3018 108.854)" fill="black"/>
<rect x="8.0484" y="107.437" width="6" height="18.2875" rx="3" transform="rotate(-77.1578 8.0484 107.437)" fill="black"/>
<rect width="6" height="18.2875" rx="3" transform="matrix(0.974986 0.222266 0.222266 -0.974986 7.88269 107.173)" fill="black"/>
<rect width="6" height="36" rx="3" transform="matrix(0.532253 -0.846585 -0.846585 -0.532253 116.8 108.854)" fill="black"/>
<rect width="6" height="18.2875" rx="3" transform="matrix(-0.222266 -0.974986 -0.974986 0.222266 120.053 107.437)" fill="black"/>
<rect x="120.219" y="107.173" width="6" height="18.2875" rx="3" transform="rotate(167.158 120.219 107.173)" fill="black"/>
</svg>
