<svg width="128" height="128" viewBox="0 0 128 128" fill="none" xmlns="http://www.w3.org/2000/svg">
<path d="M51.4999 80.6667V59.8333C51.4999 57.6232 50.6219 55.5036 49.0591 53.9408C47.4963 52.378 45.3767 51.5 43.1666 51.5C40.9564 51.5 38.8368 52.378 37.274 53.9408C35.7112 55.5036 34.8333 57.6232 34.8333 59.8333" stroke="black" stroke-width="6" stroke-linecap="round" stroke-linejoin="round"/>
<path d="M76.5 80.6667V59.8333C76.5 57.6232 77.378 55.5036 78.9408 53.9408C80.5036 52.378 82.6232 51.5 84.8333 51.5C87.0435 51.5 89.1631 52.378 90.7259 53.9408C92.2887 55.5036 93.1667 57.6232 93.1667 59.8333" stroke="black" stroke-width="6" stroke-linecap="round" stroke-linejoin="round"/>
<path d="M64 80.6667V39C64 35.6848 65.317 32.5054 67.6612 30.1612C70.0054 27.817 73.1848 26.5 76.5 26.5C79.8152 26.5 82.9946 27.817 85.3388 30.1612C87.683 32.5054 89 35.6848 89 39" stroke="black" stroke-width="6" stroke-linecap="round" stroke-linejoin="round"/>
<path d="M39 39C39 35.6848 40.317 32.5054 42.6612 30.1612C45.0054 27.817 48.1848 26.5 51.5 26.5C54.8152 26.5 57.9946 27.817 60.3388 30.1612C62.683 32.5054 64 35.6848 64 39" stroke="black" stroke-width="6" stroke-linecap="round" stroke-linejoin="round"/>
<path d="M26.5 80.6667H101.5V89C101.5 92.3152 100.183 95.4947 97.8388 97.8389C95.4946 100.183 92.3152 101.5 89 101.5H39C35.6848 101.5 32.5054 100.183 30.1612 97.8389C27.817 95.4947 26.5 92.3152 26.5 89V80.6667Z" stroke="black" stroke-width="6" stroke-linecap="round" stroke-linejoin="round"/>
</svg>
