<svg width="128" height="128" viewBox="0 0 128 128" fill="none" xmlns="http://www.w3.org/2000/svg">
<rect x="38.215" y="25.5934" width="3.38249" height="22.7115" rx="1.69125" transform="rotate(15 38.215 25.5934)" fill="black" stroke="black" stroke-width="2"/>
<rect x="92.215" y="79.5934" width="3.38249" height="22.7115" rx="1.69125" transform="rotate(15 92.215 79.5934)" fill="black" stroke="black" stroke-width="2"/>
<path d="M27.1299 29.4707C27.7451 28.8825 28.7033 28.8457 29.3613 29.3604L29.4893 29.4707L29.6084 29.5977C30.1675 30.2551 30.128 31.2386 29.4893 31.8496L24.085 37.0156L29.4561 42.1504C30.1376 42.8021 30.1374 43.8777 29.4561 44.5293C28.7998 45.1567 27.7539 45.1567 27.0977 44.5293L20.5107 38.2314C19.9967 37.7398 19.8679 37.0011 20.1406 36.3828C20.2264 36.1548 20.3606 35.9439 20.5439 35.7686L27.1299 29.4707Z" fill="black" stroke="black" stroke-width="2"/>
<path d="M81.1299 83.4707C81.7451 82.8825 82.7033 82.8457 83.3613 83.3604L83.4893 83.4707L83.6084 83.5977C84.1675 84.2551 84.128 85.2386 83.4893 85.8496L78.085 91.0156L83.4561 96.1504C84.1376 96.8021 84.1374 97.8777 83.4561 98.5293C82.7998 99.1567 81.7539 99.1567 81.0977 98.5293L74.5107 92.2314C73.9967 91.7398 73.8679 91.0011 74.1406 90.3828C74.2264 90.1548 74.3606 89.9439 74.5439 89.7686L81.1299 83.4707Z" fill="black" stroke="black" stroke-width="2"/>
<path d="M46.8701 29.4707C46.2549 28.8825 45.2967 28.8457 44.6387 29.3604L44.5107 29.4707L44.3916 29.5977C43.8325 30.2551 43.872 31.2386 44.5107 31.8496L49.915 37.0156L44.5439 42.1504C43.8624 42.8021 43.8626 43.8777 44.5439 44.5293C45.2002 45.1567 46.2461 45.1567 46.9023 44.5293L53.4893 38.2314C54.0033 37.7398 54.1321 37.0011 53.8594 36.3828C53.7736 36.1548 53.6394 35.9439 53.4561 35.7686L46.8701 29.4707Z" fill="black" stroke="black" stroke-width="2"/>
<path d="M100.87 83.4707C100.255 82.8825 99.2967 82.8457 98.6387 83.3604L98.5107 83.4707L98.3916 83.5977C97.8325 84.2551 97.872 85.2386 98.5107 85.8496L103.915 91.0156L98.5439 96.1504C97.8624 96.8021 97.8626 97.8777 98.5439 98.5293C99.2002 99.1567 100.246 99.1567 100.902 98.5293L107.489 92.2314C108.003 91.7398 108.132 91.0011 107.859 90.3828C107.774 90.1548 107.639 89.9439 107.456 89.7686L100.87 83.4707Z" fill="black" stroke="black" stroke-width="2"/>
<path d="M94.1738 56C94.1738 57.6569 92.8307 59 91.1738 59C89.517 59 88.1738 57.6569 88.1738 56L88.1738 36C88.1738 34.3431 89.517 33 91.1738 33C92.8307 33 94.1738 34.3431 94.1738 36L94.1738 56Z" fill="black"/>
<path d="M90 33C91.6569 33 93 34.3431 93 36C93 37.6569 91.6569 39 90 39L71 39C69.3431 39 68 37.6569 68 36C68 34.3431 69.3431 33 71 33L90 33Z" fill="black"/>
<rect x="91.2427" y="61" width="6" height="18.2875" rx="3" transform="rotate(-135 91.2427 61)" fill="black"/>
<rect width="6" height="18.2875" rx="3" transform="matrix(0.707107 -0.707107 -0.707107 -0.707107 90.9312 61)" fill="black"/>
<rect x="13" y="13" width="48" height="48" rx="5" stroke="black" stroke-width="6"/>
<rect x="67" y="67" width="48" height="48" rx="5" stroke="black" stroke-width="6"/>
</svg>
