<svg width="128" height="128" viewBox="0 0 128 128" fill="none" xmlns="http://www.w3.org/2000/svg">
<rect x="72" y="20" width="6" height="89.8879" rx="3" transform="rotate(15 72 20)" fill="black"/>
<path d="M39.8431 32.884C41.0229 31.7053 42.9353 31.7053 44.1151 32.884C45.295 34.0627 45.295 35.9732 44.1151 37.1519L17.1691 64.0707L43.9725 90.8481C45.1522 92.0267 45.1521 93.9373 43.9725 95.116C42.7927 96.2947 40.8793 96.2947 39.6995 95.116L10.883 66.3275C9.97422 65.4194 9.76795 64.0779 10.2595 62.9704C10.3961 62.4952 10.6518 62.0469 11.0265 61.6725L39.8431 32.884Z" fill="black"/>
<path d="M88.1569 32.884C86.9771 31.7053 85.0647 31.7053 83.8849 32.884C82.705 34.0627 82.705 35.9732 83.8849 37.1519L110.831 64.0707L84.0275 90.8481C82.8478 92.0267 82.8479 93.9373 84.0275 95.116C85.2073 96.2947 87.1207 96.2947 88.3005 95.116L117.117 66.3275C118.026 65.4194 118.232 64.0779 117.741 62.9704C117.604 62.4952 117.348 62.0469 116.973 61.6725L88.1569 32.884Z" fill="black"/>
</svg>
