<svg width="128" height="128" viewBox="0 0 128 128" fill="none" xmlns="http://www.w3.org/2000/svg">
<path d="M115.975 59.6636C118.74 61.718 118.647 65.9567 115.699 67.8657L66.7173 99.5771C65.0639 100.648 62.9362 100.648 61.2827 99.5771L12.3011 67.8657C9.25763 65.8952 9.25753 61.442 12.3011 59.4716L61.2827 27.7602C62.936 26.69 65.064 26.69 66.7173 27.7602L115.699 59.4716L115.975 59.6636Z" stroke="black" stroke-width="6"/>
<path d="M52 36C55.8333 38.3333 65.3 43.9 68.5 45.5C72.5 47.5 82.5 52 86 54.5C89.5 57 100 64 103 66C105.4 67.6 108.667 69.3333 110 70" stroke="black"/>
<path d="M40.5 43.5C43.3333 45.3333 49.5 49.1 51.5 49.5C54 50 59.5 49.5 63.5 49.5C67.5 49.5 70 50 74.5 49C78.1 48.2 84.3333 44.8333 86.5 43.5" stroke="black"/>
<path d="M19 57C23.3333 59.6667 33 65.4 37 67C42 69 52 74.5 55 77C58 79.5 66.5 84.5 70 86.5C72.8 88.1 76.5 90 77.5 90.5" stroke="black"/>
<path d="M28 77C37 72 44.5 66 50.5 57C56.5 48 69 46.5 75.5 57C82 67.5 95.5 76 98.5 77M39 84C43.5 81.6667 53.3 75.7 56.5 70.5C60.5 64 67 56 72.5 56C78 56 86 57 90.5 54.5C94.1 52.5 96.6667 50.6667 97.5 50" stroke="black"/>
<path d="M98.5 77C89 72.5 79.7143 64 76 57.5C70.6334 48.1085 57 46.5 50.5 57C44 67.5 31 76 28 77M87.5 84C81.5 81.5 75 77 70 70.5C65 64 61.5 57.5 54 56C48.6068 54.9214 42 57.8334 36 54.5C32.4 52.5 29.8333 50.6667 29 50" stroke="black"/>
<path d="M17 70.5C22.1667 67.3333 33.2 60.5 36 58.5C39.5 56 48.5 50 52.5 48.5C56.5 47 73.5 38 76 36.5" stroke="black"/>
<path d="M52 90.5C56.3333 87.8333 65.9 81.9 69.5 79.5C74 76.5 78 73 84 70C90 67 94.5 65 98 63.5C100.8 62.3 106.5 58.6667 109 57" stroke="black"/>
</svg>
